<?xml version="1.0" standalone="no"?>
<!DOCTYPE svg PUBLIC "-//W3C//DTD SVG 20010904//EN"
 "http://www.w3.org/TR/2001/REC-SVG-20010904/DTD/svg10.dtd">
<svg version="1.0" xmlns="http://www.w3.org/2000/svg"
 width="461.000000pt" height="461.000000pt" viewBox="0 0 461.000000 461.000000"
 preserveAspectRatio="xMidYMid meet">
<metadata>
Created by potrace 1.11, written by Peter Selinger 2001-2013
</metadata>
<g transform="translate(0.000000,461.000000) scale(0.100000,-0.100000)"
fill="#000000" stroke="none">
<path d="M2129 4606 c-2 -2 -33 -7 -69 -10 -355 -30 -747 -177 -1076 -403
-193 -132 -421 -356 -534 -523 -8 -12 -20 -28 -26 -34 -25 -27 -111 -170 -164
-271 -54 -103 -138 -299 -143 -334 -1 -9 -5 -20 -8 -26 -4 -5 -10 -23 -14 -40
-4 -16 -9 -37 -11 -45 -34 -130 -41 -165 -50 -230 -3 -25 -8 -47 -9 -51 -18
-29 -27 -438 -13 -574 28 -259 101 -516 214 -753 67 -138 157 -292 177 -300 4
-2 7 -9 7 -15 0 -7 11 -24 25 -39 14 -15 25 -30 25 -33 0 -12 126 -158 205
-239 301 -307 706 -533 1125 -628 47 -10 58 -12 125 -23 22 -3 46 -8 53 -10
75 -26 533 -26 672 -1 52 10 107 19 121 21 47 7 242 60 299 82 8 4 17 7 20 8
19 4 127 49 185 76 39 18 73 32 77 31 3 -1 12 5 18 13 7 8 17 15 22 15 14 0
231 131 248 150 3 3 24 18 48 34 23 16 52 38 65 50 13 11 39 33 58 47 77 60
272 265 334 353 11 16 25 33 31 40 5 6 19 26 29 44 11 17 22 32 26 32 4 0 10
11 13 25 4 14 10 25 15 25 5 0 14 14 21 30 7 17 17 30 22 30 5 0 7 4 3 9 -3 5
-1 12 5 16 8 5 90 168 141 280 18 39 71 201 89 270 58 221 74 352 75 595 0
239 -13 350 -71 595 -11 43 -13 50 -14 50 -1 0 -3 7 -5 15 -4 17 -57 170 -75
215 -6 17 -11 30 -10 30 1 0 -29 61 -67 135 -143 278 -330 520 -542 700 -30
25 -59 50 -65 55 -73 67 -233 173 -366 243 -36 18 -71 38 -77 44 -7 6 -13 8
-13 4 0 -3 -15 2 -32 12 -34 19 -186 81 -210 86 -7 2 -20 6 -28 9 -21 8 -84
27 -106 32 -10 2 -44 11 -74 19 -30 8 -72 17 -94 20 -21 4 -41 8 -45 10 -3 2
-35 7 -71 11 -36 4 -69 10 -74 13 -10 6 -431 13 -437 8z"/>
</g>
</svg>
