<svg xmlns="http://www.w3.org/2000/svg" xmlns:xlink="http://www.w3.org/1999/xlink" viewBox="0 0 98.5 102"><defs><style>.cls-1,.cls-6{stroke:#b6c0d6;}.cls-1,.cls-2,.cls-6,.cls-7{stroke-miterlimit:10;}.cls-1,.cls-6,.cls-7{stroke-width:6px;}.cls-1,.cls-3{fill:url(#linear-gradient);}.cls-2,.cls-6,.cls-7{fill:none;}.cls-2{stroke:#000;stroke-width:10px;}.cls-4{clip-path:url(#clip-path);}.cls-5{fill:#cebfb2;}.cls-7{stroke:#37293a;}</style><linearGradient id="linear-gradient" x1="1.67" y1="51" x2="97.75" y2="51" gradientUnits="userSpaceOnUse"><stop offset="0" stop-color="#b8afb2"/><stop offset="0.17" stop-color="#cbc5cc"/><stop offset="0.37" stop-color="#ddd9e4"/><stop offset="0.49" stop-color="#e4e1ed"/><stop offset="0.62" stop-color="#ddd9e4"/><stop offset="0.83" stop-color="#cbc5cc"/><stop offset="1" stop-color="#b8afb2"/></linearGradient><clipPath id="clip-path"><path class="cls-1" d="M93.5,37c0-.89-1-1.62-2.37-1.77a3.51,3.51,0,0,1-1.19-.38C67.08,23.27,62.49,11.74,59.93,7a3.92,3.92,0,0,0-3.45-2H42a3.92,3.92,0,0,0-3.45,2c-2.55,4.69-7.14,16.22-30,27.8a3.51,3.51,0,0,1-1.19.38C6,35.38,5,36.11,5,37V65c0,.89,1,1.62,2.37,1.77a3.51,3.51,0,0,1,1.19.38C31.43,78.73,36,90.26,38.57,95A3.92,3.92,0,0,0,42,97H56.48a3.92,3.92,0,0,0,3.45-2c2.56-4.69,7.15-16.23,30-27.81a3.51,3.51,0,0,1,1.19-.38c1.34-.14,2.37-.88,2.37-1.77Z"/></clipPath></defs><title>Asset 2</title><g id="Layer_2" data-name="Layer 2"><g id="Slider"><g id="Fore"><path id="_Path_" data-name="&lt;Path&gt;" class="cls-2" d="M93.5,37c0-.89-1-1.62-2.37-1.77a3.51,3.51,0,0,1-1.19-.38C67.08,23.27,62.49,11.74,59.93,7a3.92,3.92,0,0,0-3.45-2H42a3.92,3.92,0,0,0-3.45,2c-2.55,4.69-7.14,16.22-30,27.8a3.51,3.51,0,0,1-1.19.38C6,35.38,5,36.11,5,37V65c0,.89,1,1.62,2.37,1.77a3.51,3.51,0,0,1,1.19.38C31.43,78.73,36,90.26,38.57,95A3.92,3.92,0,0,0,42,97H56.48a3.92,3.92,0,0,0,3.45-2c2.56-4.69,7.15-16.23,30-27.81a3.51,3.51,0,0,1,1.19-.38c1.34-.14,2.37-.88,2.37-1.77Z"/><path class="cls-3" d="M93.5,37c0-.89-1-1.62-2.37-1.77a3.51,3.51,0,0,1-1.19-.38C67.08,23.27,62.49,11.74,59.93,7a3.92,3.92,0,0,0-3.45-2H42a3.92,3.92,0,0,0-3.45,2c-2.55,4.69-7.14,16.22-30,27.8a3.51,3.51,0,0,1-1.19.38C6,35.38,5,36.11,5,37V65c0,.89,1,1.62,2.37,1.77a3.51,3.51,0,0,1,1.19.38C31.43,78.73,36,90.26,38.57,95A3.92,3.92,0,0,0,42,97H56.48a3.92,3.92,0,0,0,3.45-2c2.56-4.69,7.15-16.23,30-27.81a3.51,3.51,0,0,1,1.19-.38c1.34-.14,2.37-.88,2.37-1.77Z"/><g class="cls-4"><rect class="cls-5" x="39.75" y="5" width="19" height="92"/></g><path class="cls-6" d="M93.5,37c0-.89-1-1.62-2.37-1.77a3.51,3.51,0,0,1-1.19-.38C67.08,23.27,62.49,11.74,59.93,7a3.92,3.92,0,0,0-3.45-2H42a3.92,3.92,0,0,0-3.45,2c-2.55,4.69-7.14,16.22-30,27.8a3.51,3.51,0,0,1-1.19.38C6,35.38,5,36.11,5,37V65c0,.89,1,1.62,2.37,1.77a3.51,3.51,0,0,1,1.19.38C31.43,78.73,36,90.26,38.57,95A3.92,3.92,0,0,0,42,97H56.48a3.92,3.92,0,0,0,3.45-2c2.56-4.69,7.15-16.23,30-27.81a3.51,3.51,0,0,1,1.19-.38c1.34-.14,2.37-.88,2.37-1.77Z"/><line class="cls-7" x1="49.25" y1="100" x2="49.25" y2="2"/></g></g></g></svg>